<svg width="190" height="60.00000000000001" xmlns="http://www.w3.org/2000/svg">
 <!-- Created with Method Draw - http://github.com/duopixel/Method-Draw/ -->

 <g>
  <title>background</title>
  <rect fill="none" id="canvas_background" height="62" width="192" y="-1" x="-1"/>
  <g display="none" overflow="visible" y="0" x="0" height="100%" width="100%" id="canvasGrid">
   <rect fill="url(#gridpattern)" stroke-width="0" y="0" x="0" height="100%" width="100%"/>
  </g>
 </g>
 <g>
  <title>Layer 1</title>
  <g stroke="null" id="svg_7">
   <g stroke="null" transform="matrix(0.48151531606430015,0,0,0.472729121593412,-44.47806048705388,-59.33325984743294) " id="svg_5">
    <path stroke="null" id="svg_6" fill="#3EBBC4" d="m160.87102,247.42347l0,-23.8c3.2,-0.8 6.3,-2.1 9,-3.9l0,6.7l29,0l0,-29l-15.6,0c0.1,-0.8 0.1,-1.7 0.1,-2.5c0,-8.6 -3.8,-16.6 -10,-22.1l30.5,-30.6l10,10l0,-5.7l-10,-10l-33.7,33.8c-0.9,-0.6 -1.8,-1.1 -2.7,-1.6l36.4,-36.5l10,10l0,-5.7l-10,-10l-36,36c0.3,-1.7 0.5,-3.4 0.5,-5.2c0,-14.9 -12.1,-27 -27,-27s-27,12.1 -27,27c0,0.1 0,0.2 0,0.3c-13.2,5.1 -22,17.9 -22,32.2c0,19.1 15.5,34.6 34.5,34.6l9,0l0,27l4,0l0,-27l14,0c1,0 2,-0.1 3,-0.2l0,27.2l57,0l0,-4l-53,0zm34,-46l0,21l-21,0l0,-5.8c4.3,-4 7.4,-9.2 8.8,-15.2l12.2,0zm-41,19l-14,0l0,-9.1l18.9,-9.4l-1.8,-3.6l-17.1,8.5l0,-39.4l-4,0l0,19.4l-17.1,-8.6l-1.8,3.6l18.9,9.5l0,29.1l-9,0c-16.8,0 -30.5,-13.7 -30.5,-30.5c0,-13.1 8.3,-24.7 20.7,-28.9l1.5,-0.5l-0.1,-1.5c0,-0.5 -0.1,-1.1 -0.1,-1.6c0,-12.7 10.3,-23 23,-23s23,10.3 23,23c0,3.8 -0.9,7.5 -2.7,10.8l-1.1,2l2.1,0.8c9.9,3.7 16.6,13.3 16.6,23.9c0.1,14.1 -11.3,25.5 -25.4,25.5z"/>
   </g>
  </g>
  <text font-weight="bold" font-style="normal" stroke="null" transform="matrix(1.3475189995546706,0,0,1.2636812925338745,21.19124780868097,-4.009506638980952) " xml:space="preserve" text-anchor="start" font-family="Helvetica, Arial, sans-serif" font-size="29" id="svg_8" y="36.86275" x="34.25783" stroke-width="0" fill="#3ebbc4">AVepir</text>
 </g>
</svg>